<svg width="46" height="46" viewBox="0 0 46 46" fill="none" xmlns="http://www.w3.org/2000/svg">
<path d="M36.4167 5.75H9.58333C7.46624 5.75 5.75 7.46624 5.75 9.58333V36.4167C5.75 38.5338 7.46624 40.25 9.58333 40.25H36.4167C38.5338 40.25 40.25 38.5338 40.25 36.4167V9.58333C40.25 7.46624 38.5338 5.75 36.4167 5.75Z" stroke="#D0D0D0" stroke-width="2" stroke-linecap="round" stroke-linejoin="round"/>
<path d="M16.2916 19.1667C17.8794 19.1667 19.1666 17.8795 19.1666 16.2917C19.1666 14.7039 17.8794 13.4167 16.2916 13.4167C14.7038 13.4167 13.4166 14.7039 13.4166 16.2917C13.4166 17.8795 14.7038 19.1667 16.2916 19.1667Z" stroke="#D0D0D0" stroke-width="2" stroke-linecap="round" stroke-linejoin="round"/>
<path d="M40.25 28.75L30.6667 19.1667L9.58337 40.25" stroke="#D0D0D0" stroke-width="2" stroke-linecap="round" stroke-linejoin="round"/>
</svg>
